<svg width="36" height="36" viewBox="0 0 36 36" fill="none" xmlns="http://www.w3.org/2000/svg">
<g clip-path="url(#clip0_274_1296)">
<g clip-path="url(#clip1_274_1296)">
<path d="M33.2358 1.30426C32.0804 1.10632 30.9834 1.88241 30.7854 3.03778L30.4874 4.36536C30.3314 5.05974 30.4051 5.76431 30.6679 6.38873C30.7162 6.38296 30.7638 6.37783 30.8107 6.37333C30.9936 6.35582 31.1789 6.34696 31.3615 6.34696C32.5 6.34696 33.5715 6.69207 34.4086 7.31023L34.9736 3.72892C35.1558 2.58121 34.3811 1.50045 33.2358 1.30426Z" fill="#F50E30"/>
<path d="M-1 10.126V14.345C-1 14.9275 -0.527753 15.3998 0.0547514 15.3998H2.11792V9.07129H0.0547514C-0.527753 9.07129 -1 9.54354 -1 10.126Z" fill="#F50E30"/>
<path d="M6.33704 6.48835C6.33704 5.90676 5.86388 5.43359 5.28229 5.43359C4.7007 5.43359 4.22754 5.90676 4.22754 6.48835V17.9835C4.22754 18.5651 4.7007 19.0383 5.28229 19.0383C5.86388 19.0383 6.33704 18.5651 6.33704 17.9835V6.48835Z" fill="#F50E30"/>
<path d="M13.5569 22.7488C15.1911 22.7488 16.6621 21.5517 17.699 19.3779C18.6174 17.4525 19.1231 14.9161 19.1231 12.2358C19.1231 9.55555 18.6174 7.01916 17.699 5.09382C16.6621 2.92004 15.1911 1.7229 13.5569 1.7229C11.9424 1.7229 10.0654 2.91273 8.53583 4.90579C8.50124 4.95093 8.46749 4.99657 8.43359 5.04206C8.43859 5.84487 8.43359 19.4297 8.43359 19.4297C8.46749 19.4753 8.50124 19.5209 8.53583 19.566C10.0654 21.5589 11.9425 22.7488 13.5569 22.7488Z" fill="#F50E30"/>
<path d="M31.011 8.47288C29.5716 8.61035 28.306 9.43488 27.2493 10.9234C26.5801 11.8661 26.0004 13.0612 25.4773 14.577C24.1211 18.5065 23.9468 22.7253 24.9993 26.1518C25.0386 26.2794 25.0803 26.4065 25.1232 26.5332C22.7995 25.7335 20.1429 25.1991 17.4873 25.008C14.1621 24.7686 11.1108 25.0626 8.66279 25.8582C6.96569 26.4097 5.98161 28.1847 6.42249 29.8992C6.42981 29.9279 6.43845 29.9563 6.44823 29.9843L7.85738 34.0192C8.00525 34.4426 8.40465 34.7263 8.85313 34.7263H28.9897C29.4957 34.7263 29.9304 34.367 30.0256 33.8699L30.7177 30.2559C30.7255 30.2151 30.73 30.1745 30.733 30.1341C30.1602 30.7057 29.3702 31.0597 28.4989 31.0597C26.7542 31.0597 25.3347 29.6402 25.3347 27.8954C25.3347 26.1507 26.7542 24.7312 28.4989 24.7312C29.6928 24.7312 30.734 25.3959 31.2728 26.3745L33.9967 11.1991C34.1237 10.4691 33.9367 9.78956 33.47 9.28553C32.9122 8.68278 31.9934 8.37887 31.011 8.47288Z" fill="#F50E30"/>
<path d="M28.4991 28.9506C29.0816 28.9506 29.5538 28.4783 29.5538 27.8958C29.5538 27.3133 29.0816 26.8411 28.4991 26.8411C27.9166 26.8411 27.4443 27.3133 27.4443 27.8958C27.4443 28.4783 27.9166 28.9506 28.4991 28.9506Z" fill="#F50E30"/>
</g>
</g>
<defs>
<clipPath id="clip0_274_1296">
<rect width="36" height="36" fill="white"/>
</clipPath>
<clipPath id="clip1_274_1296">
<rect width="36" height="36" fill="white" transform="translate(-1)"/>
</clipPath>
</defs>
</svg>
